HIERARCHY
ROOT Pelvis
{
	OFFSET 0.000000 0.000000 0.000000
	CHANNELS 6 Xposition Yposition Zposition Xrotation Yrotation Zrotation
	JOINT LeftUpLeg_virtual
	{
		OFFSET 0.000000 0.000000 0.000000
		CHANNELS 3 Xrotation Yrotation Zrotation
		JOINT LeftUpLeg
		{
			OFFSET 18.735201 -5.666702 -4.541200
			CHANNELS 3 Xrotation Yrotation Zrotation
			JOINT LeftLeg
			{
				OFFSET -0.021200 -31.938179 0.493100
				CHANNELS 3 Xrotation Yrotation Zrotation
				JOINT LeftFoot
				{
					OFFSET 0.021200 -31.938179 -4.336299
					CHANNELS 3 Xrotation Yrotation Zrotation
					JOINT LeftToeBase
					{
						OFFSET 0.943001 -26.722000 15.023500
						CHANNELS 3 Xrotation Yrotation Zrotation
						End Site
						{
							OFFSET 0 0 0
						}
					}
				}
			}
		}
	}
	JOINT RightUpLeg_virtual
	{
		OFFSET 0.000000 0.000000 0.000000
		CHANNELS 3 Xrotation Yrotation Zrotation
		JOINT RightUpLeg
		{
			OFFSET -18.735201 -5.666702 -4.541200
			CHANNELS 3 Xrotation Yrotation Zrotation
			JOINT RightLeg
			{
				OFFSET 0.018946 -31.938133 0.493100
				CHANNELS 3 Xrotation Yrotation Zrotation
				JOINT RightFoot
				{
					OFFSET -0.018946 -31.938126 -4.336299
					CHANNELS 3 Xrotation Yrotation Zrotation
					JOINT RightToeBase
					{
						OFFSET -0.943001 -26.722004 15.023500
						CHANNELS 3 Xrotation Yrotation Zrotation
						End Site
						{
							OFFSET 0 0 0
						}
					}
				}
			}
		}
	}
	JOINT Hips_virtual
	{
		OFFSET 0.000000 0.000000 0.000000
		CHANNELS 3 Xrotation Yrotation Zrotation
		JOINT Hips
		{
			OFFSET -0.000000 -0.000000 -0.000000
			CHANNELS 3 Xrotation Yrotation Zrotation
			JOINT Spine
			{
				OFFSET 0.000000 10.199997 -0.299500
				CHANNELS 3 Xrotation Yrotation Zrotation
				JOINT Spine1
				{
					OFFSET 0.000000 11.900002 -1.516600
					CHANNELS 3 Xrotation Yrotation Zrotation
					JOINT Spine2
					{
						OFFSET 0.000000 13.600006 -2.842500
						CHANNELS 3 Xrotation Yrotation Zrotation
						JOINT Neck_virtual
						{
							OFFSET 0.000000 0.000000 0.000000
							CHANNELS 3 Xrotation Yrotation Zrotation
							JOINT Neck
							{
								OFFSET 0.000000 9.624100 -2.890100
								CHANNELS 3 Xrotation Yrotation Zrotation
								JOINT Head
								{
									OFFSET 0.000000 14.068802 -1.351900
									CHANNELS 3 Xrotation Yrotation Zrotation
									End Site
									{
										OFFSET 0 0 0
									}
								}
							}
						}
						JOINT LeftShoulder_virtual
						{
							OFFSET 0.000000 0.000000 0.000000
							CHANNELS 3 Xrotation Yrotation Zrotation
							JOINT LeftShoulder
							{
								OFFSET 15.263000 10.923401 -0.547700
								CHANNELS 3 Xrotation Yrotation Zrotation
								JOINT LeftArm
								{
									OFFSET 25.438599 -2.830597 -13.032500
									CHANNELS 3 Xrotation Yrotation Zrotation
									JOINT LeftForeArm
									{
										OFFSET 29.960503 0.000000 0.000000
										CHANNELS 3 Xrotation Yrotation Zrotation
										JOINT LeftHand
										{
											OFFSET 27.849251 0.000000 0.000000
											CHANNELS 3 Xrotation Yrotation Zrotation
											End Site
											{
												OFFSET 0 0 0
											}
										}
									}
								}
							}
						}
						JOINT RightShoulder_virtual
						{
							OFFSET 0.000000 0.000000 0.000000
							CHANNELS 3 Xrotation Yrotation Zrotation
							JOINT RightShoulder
							{
								OFFSET -15.263000 10.923401 -0.547700
								CHANNELS 3 Xrotation Yrotation Zrotation
								JOINT RightArm
								{
									OFFSET -25.438599 -2.830597 -13.032500
									CHANNELS 3 Xrotation Yrotation Zrotation
									JOINT RightForeArm
									{
										OFFSET -29.960503 0.000000 0.000000
										CHANNELS 3 Xrotation Yrotation Zrotation
										JOINT RightHand
										{
											OFFSET -27.849251 0.000000 0.000000
											CHANNELS 3 Xrotation Yrotation Zrotation
											End Site
											{
												OFFSET 0 0 0
											}
										}
									}
								}
							}
						}
					}
				}
			}
		}
	}
}
MOTION
Frames: 10
Frame Time: 0.03333333
0.738981 94.637680 4.631063 0.000000 0.000000 0.000000 -3.491080 4.832935 -1.813187 -9.683858 9.380092 13.391594 21.226281 -6.347193 -0.122599 -4.561868 3.143725 -8.647118 0.000000 0.000000 0.000000 -3.688571 5.797373 -2.233885 -5.342835 -6.380652 0.583313 13.175722 3.829170 -0.116396 -4.616121 0.618059 3.522607 0.000000 0.000000 0.000000 -3.785283 5.288136 -1.559698 -0.207222 -0.394953 -1.141830 8.590555 0.275743 2.364727 0.460423 -0.613640 -0.163109 0.000000 0.000000 0.000000 -2.974199 -0.468567 -0.594070 -0.232284 -0.279049 0.363562 0.000000 0.000000 0.000000 -2.627606 -0.519683 -0.834472 0.765657 -6.255635 -3.591486 -0.692881 -5.048149 -74.189003 7.743621 -17.536784 0.293799 0.000000 0.000000 0.000000 -2.371573 -0.409080 -0.494330 2.728796 8.311777 2.452124 -1.269843 4.028273 75.331618 15.318967 14.666921 -2.170589 0.000000 0.000000 0.000000 
0.796283 94.628281 4.585175 0.000000 0.000000 0.000000 -3.520898 4.635876 -1.856063 -9.516912 9.542756 13.297487 21.059282 -6.194946 -0.177140 -4.748931 3.238558 -8.585728 0.000000 0.000000 0.000000 -3.691429 5.596155 -2.325236 -5.648501 -6.447036 0.608745 13.434859 3.819992 -0.093055 -4.347977 0.680723 3.500256 0.000000 0.000000 0.000000 -3.793444 5.151173 -1.645947 -0.156811 -0.497880 -1.106256 8.822561 0.262383 2.300721 0.429413 -0.634034 -0.128620 0.000000 0.000000 0.000000 -2.939067 -0.485725 -0.584556 -0.243474 -0.271479 0.362159 0.000000 0.000000 0.000000 -2.621197 -0.539191 -0.795919 0.737773 -6.253068 -3.653565 -0.788773 -5.149250 -74.165206 7.793130 -17.612823 0.320496 0.000000 0.000000 0.000000 -2.425154 -0.426095 -0.479506 2.711117 8.334862 2.482699 -1.152807 4.141168 75.331317 15.286249 14.712690 -2.129522 0.000000 0.000000 0.000000 
0.811666 94.615303 4.616726 0.000000 0.000000 0.000000 -3.505680 4.251202 -1.930356 -9.236002 9.463873 13.202966 20.938930 -6.066965 -0.154885 -5.545060 3.122519 -8.458437 0.000000 0.000000 0.000000 -3.674629 5.236010 -2.418897 -5.973282 -6.347210 0.697599 13.806439 3.907836 -0.158602 -4.085684 0.832555 3.406070 0.000000 0.000000 0.000000 -3.775576 4.837115 -1.762338 -0.159714 -0.536760 -1.052484 9.245301 0.240907 2.235180 0.374558 -0.664424 -0.068892 0.000000 0.000000 0.000000 -2.970359 -0.515790 -0.569824 -0.276212 -0.248269 0.359217 0.000000 0.000000 0.000000 -2.647113 -0.568146 -0.751406 0.685835 -6.196439 -3.847048 -0.834473 -5.252666 -74.074727 7.876577 -17.716961 0.309861 0.000000 0.000000 0.000000 -2.503294 -0.454287 -0.457345 2.651668 8.289582 2.561967 -0.941224 4.609129 75.167700 15.232462 14.843948 -2.111757 0.000000 0.000000 0.000000 
0.744420 94.582893 4.719658 0.000000 0.000000 0.000000 -3.422417 3.728484 -2.039055 -8.796911 9.209727 13.186536 20.778784 -5.969166 -0.080873 -6.675655 2.762993 -8.410569 0.000000 0.000000 0.000000 -3.651491 4.742116 -2.517429 -6.226148 -6.064968 0.865034 14.201344 4.122223 -0.242699 -3.900444 1.076730 3.334321 0.000000 0.000000 0.000000 -3.737544 4.373715 -1.909354 -0.182810 -0.568861 -0.932048 9.769411 0.208746 2.184615 0.308114 -0.707872 0.014570 0.000000 0.000000 0.000000 -3.063041 -0.555794 -0.540651 -0.314935 -0.212026 0.357473 0.000000 0.000000 0.000000 -2.709179 -0.604496 -0.695218 0.617279 -6.090805 -4.136794 -0.847987 -5.326750 -73.884007 7.985388 -17.811115 0.251581 0.000000 0.000000 0.000000 -2.600069 -0.493510 -0.420097 2.552496 8.176556 2.682367 -0.637899 5.362096 74.798542 15.156726 15.067066 -2.105778 0.000000 0.000000 0.000000 
0.584487 94.536606 4.868734 0.000000 0.000000 0.000000 -3.292041 3.147224 -2.161316 -8.343584 9.008493 13.337077 20.553742 -5.747247 -0.044479 -7.623118 2.306257 -8.455277 0.000000 0.000000 0.000000 -3.613825 4.144980 -2.615566 -6.427454 -5.737251 1.096738 14.609822 4.425742 -0.259735 -3.752444 1.379454 3.275100 0.000000 0.000000 0.000000 -3.682348 3.765478 -2.063845 -0.230920 -0.588862 -0.815366 10.291409 0.161744 2.153152 0.254109 -0.769005 0.118547 0.000000 0.000000 0.000000 -3.195823 -0.604652 -0.484541 -0.336626 -0.168133 0.356378 0.000000 0.000000 0.000000 -2.786124 -0.649942 -0.617641 0.539222 -5.972123 -4.502687 -0.870149 -5.384237 -73.570310 8.116836 -17.898407 0.135159 0.000000 0.000000 0.000000 -2.712370 -0.542089 -0.354410 2.426135 8.020053 2.836652 -0.248877 6.295170 74.225517 15.055123 15.374921 -2.100389 0.000000 0.000000 0.000000 
0.314639 94.479004 5.027918 0.000000 0.000000 0.000000 -3.141953 2.529100 -2.263522 -8.026779 8.978296 13.621518 20.343222 -5.259863 -0.044886 -8.194942 1.949142 -8.519195 0.000000 0.000000 0.000000 -3.548212 3.491174 -2.713906 -6.650950 -5.503541 1.373024 15.002960 4.746845 -0.174660 -3.520249 1.634984 3.032702 0.000000 0.000000 0.000000 -3.580386 3.009807 -2.204874 -0.309966 -0.598019 -0.767345 10.702089 0.099724 2.144522 0.224617 -0.847614 0.237370 0.000000 0.000000 0.000000 -3.341090 -0.661811 -0.388269 -0.319534 -0.119466 0.358426 0.000000 0.000000 0.000000 -2.850533 -0.711925 -0.511277 0.453344 -5.873267 -4.918821 -0.935917 -5.408165 -73.132714 8.256845 -17.963771 -0.043079 0.000000 0.000000 0.000000 -2.824022 -0.597828 -0.249752 2.292999 7.834982 3.017651 0.205640 7.288873 73.503764 14.924882 15.733375 -2.096410 0.000000 0.000000 0.000000 
-0.046012 94.405891 5.215654 0.000000 0.000000 0.000000 -2.953488 1.813736 -2.330783 -7.842626 9.007313 13.879991 20.219050 -4.478106 0.001932 -8.414930 1.791159 -8.636805 0.000000 0.000000 0.000000 -3.441934 2.772711 -2.804759 -6.836154 -5.317344 1.731490 15.289351 5.068261 -0.019063 -3.229555 1.752948 2.435684 0.000000 0.000000 0.000000 -3.410201 2.140731 -2.309238 -0.334921 -0.628830 -0.787242 10.955625 0.014327 2.144238 0.224073 -0.943168 0.369523 0.000000 0.000000 0.000000 -3.485149 -0.731132 -0.252900 -0.257829 -0.065635 0.365031 0.000000 0.000000 0.000000 -2.900481 -0.795466 -0.379854 0.366333 -5.794341 -5.347278 -1.033581 -5.369660 -72.603784 8.390677 -17.985802 -0.282856 0.000000 0.000000 0.000000 -2.933843 -0.663627 -0.104820 2.171234 7.639371 3.239303 0.697520 8.266425 72.702057 14.776945 16.087559 -2.102966 0.000000 0.000000 0.000000 
-0.470175 94.307602 5.464300 0.000000 0.000000 0.000000 -2.699689 0.978775 -2.346510 -7.677418 8.993547 14.014890 20.104107 -3.419762 0.148457 -8.489682 1.826140 -9.019160 0.000000 0.000000 0.000000 -3.279842 1.949865 -2.858033 -6.980072 -5.044916 2.205625 15.509282 5.445177 0.148088 -3.028539 1.736130 1.462982 0.000000 0.000000 0.000000 -3.180858 1.205424 -2.358370 -0.395049 -0.644404 -0.790467 11.052159 -0.094967 2.133579 0.246750 -1.052309 0.501465 0.000000 0.000000 0.000000 -3.613707 -0.819207 -0.099263 -0.156297 -0.005460 0.376555 0.000000 0.000000 0.000000 -2.931104 -0.900867 -0.237635 0.289521 -5.715063 -5.758130 -1.083732 -5.233320 -72.039849 8.498841 -17.917946 -0.570881 0.000000 0.000000 0.000000 -3.032045 -0.742955 0.063584 2.079715 7.436278 3.521396 1.210818 9.190799 71.901319 14.623901 16.374334 -2.123460 0.000000 0.000000 0.000000 
-0.978827 94.193390 5.748102 0.000000 0.000000 0.000000 -2.394389 0.033055 -2.327032 -7.425796 8.862238 14.038090 19.933545 -2.118321 0.409848 -8.886256 2.011161 -9.846365 0.000000 0.000000 0.000000 -3.075543 1.030406 -2.840994 -7.095444 -4.508235 2.768731 15.640266 6.010785 0.304168 -3.068875 1.733674 0.334530 0.000000 0.000000 0.000000 -2.925203 0.251511 -2.367878 -0.489931 -0.638509 -0.742319 11.041113 -0.226139 2.118929 0.267937 -1.179366 0.612701 0.000000 0.000000 0.000000 -3.726670 -0.928759 0.040712 -0.029721 0.063164 0.393154 0.000000 0.000000 0.000000 -2.957751 -1.029527 -0.114196 0.222576 -5.639688 -6.127192 -1.031454 -4.987399 -71.484138 8.568405 -17.772151 -0.884478 0.000000 0.000000 0.000000 -3.110071 -0.843157 0.227958 2.012694 7.207774 3.903756 1.738366 10.038922 71.119645 14.467387 16.593320 -2.159720 0.000000 0.000000 0.000000 
-1.545731 94.059830 6.110069 0.000000 0.000000 0.000000 -2.077030 -0.999547 -2.301975 -7.116763 8.649329 14.026231 19.846141 -0.605815 0.755420 -9.567228 2.359336 -11.111970 0.000000 0.000000 0.000000 -2.851154 0.024750 -2.786621 -7.241887 -3.734359 3.352389 15.760134 6.818954 0.553633 -3.415266 1.894385 -0.661636 0.000000 0.000000 0.000000 -2.686943 -0.672249 -2.372181 -0.589619 -0.657828 -0.616140 11.010022 -0.391108 2.112760 0.268810 -1.334477 0.680723 0.000000 0.000000 0.000000 -3.839642 -1.067249 0.133966 0.099951 0.140447 0.416447 0.000000 0.000000 0.000000 -2.992643 -1.186442 -0.037921 0.164166 -5.587731 -6.439430 -0.849833 -4.687787 -70.929827 8.594031 -17.602477 -1.216278 0.000000 0.000000 0.000000 -3.174149 -0.972849 0.356066 1.940768 6.923985 4.408763 2.271721 10.823475 70.375660 14.306637 16.795423 -2.205088 0.000000 0.000000 0.000000 
